<mxfile host="app.diagrams.net" modified="2024-01-09T03:36:30.002Z" agent="Mozilla/5.0 (Windows NT 10.0; Win64; x64) AppleWebKit/537.36 (KHTML, like Gecko) Chrome/120.0.0.0 Safari/537.36 Edg/120.0.0.0" version="22.1.17" etag="FYnx5EasPBU7F_TNpHUy" type="github">
  <diagram name="第 1 页" id="i7cTBxMTVU_1yxp9y1tX">
    <mxGraphModel>
      <root>
        <mxCell id="0" />
        <mxCell id="1" parent="0" />
      </root>
    </mxGraphModel>
  </diagram>
</mxfile>
